<?xml version="1.0" encoding="utf-8"?>
<!-- Generator: Adobe Illustrator 25.2.0, SVG Export Plug-In . SVG Version: 6.00 Build 0)  -->
<svg version="1.1" id="Layer_1" xmlns="http://www.w3.org/2000/svg" x="0px" y="0px"
	 viewBox="0 0 963.78 793.7" style="enable-background:new 0 0 963.78 793.7;" xml:space="preserve">
<style type="text/css">
	.st0{fill:#FFFFFF;}
	.st1{fill:#F6ADCD;}
	.st2{fill:#ED0C6E;}
	.st3{fill:#A1C77F;}
	.st4{fill:#37A97F;}
	.st5{fill:#950042;}
	.st6{fill:#E20C7C;}
</style>
<g>
	<path class="st0" d="M455.54,386.53c0,0,12.48-27.19,51.98-57.72c39.5-30.53,46.68-58.33,46.68-58.33s12.29-28.72,51.15-37.89
		c38.84-9.17,54.38-61.77,28.12-74.36c0,0,15.94-55.5-18.97-67.35c-34.91-11.87-66.1,8.19-66.1,8.19l-30.01-17.6
		c0,0,35.71-40.94,6.51-56.59c-29.21-15.66-53.81-19.05-81.22-0.67s-8.48,50.31-8.48,50.31l-8,18.97c0,0-11.62-17.96-51.87-16.93
		c-40.23,1.03-64.41,40.34-39.1,62.18c0,0-26.16,27.67-20.93,50.34s13.98,46.98,13.98,46.98l16.69,59.17l44.46-15.76l30.62,4.76
		l13.41,85.47L455.54,386.53L455.54,386.53z"/>
	<path class="st1" d="M548.37,246.21c0,0,11.46-17.23,38.16-24.85c20.36-5.81,44.73-17.82,44.73-37.2
		c0-24.29-31.75-34.31-47.95-17.8l0.37,6.57c0,0,9.74-12.82,22.09-9.46c12.34,3.36,11.91,9.25,14.14,17.94
		c2.22,8.68-7.57,18.17-16.22,24.4c-8.66,6.25-22.4,12.34-32.39,16.51C561.32,226.48,550.14,234.99,548.37,246.21L548.37,246.21z"/>
	<path class="st1" d="M569.44,116.47c-6.18-5.31-9.43-21.29,7.28-27.15c16.7-5.87,38.98,1.67,44.12,16.62
		c4.49,13.04-5.2,23.61-11.95,28.54c-6.75,4.91-23.75,14.9-23.75,14.9l24.74-3.24c0,0,29.52-22.07,22.5-37.96
		c-7.02-15.88-19.05-24.03-40.38-26.43c-21.33-2.4-37.63,3.33-37.78,14.54c-0.14,11.19,0.46,12.74,5.36,17.94
		C564.47,119.44,567.24,119.14,569.44,116.47L569.44,116.47z"/>
	<path class="st1" d="M529.05,232.45c0,0,16.55,10.91,10.07,33.6c-6.49,22.7-30.85,25.1-46.57,30.38
		c-15.72,5.29-50.37,17.8-53.95,59.34c0,0-12.11-30.13,18.6-52.67c30.72-22.54,59.05-10.11,69.97-32.62
		C538.09,247.97,529.05,232.45,529.05,232.45L529.05,232.45z"/>
	<path class="st1" d="M521.73,195.06c0,0-46.45,23.45-61.84,36s-19.27,32.81,2.9,46.93c0,0,26.66,6.4,49.57-7.2
		c20.52-12.18,16.25-37.7-7.83-40.38c1.31-9.32,29.67-30.54,29.67-30.54L521.73,195.06L521.73,195.06z"/>
	<path class="st1" d="M431.67,241.72c0.54-5.91,10.02-11.95,10.02-11.95l-6.78-0.8l-9.88,12.75c0,0-17.75,35.36,31.98,56.67
		c0,0,24.78-9.85,24.17-10c-0.6-0.16-5.42,1.46-27.48-7.1C431.67,272.73,430.38,255.93,431.67,241.72L431.67,241.72z"/>
	<path class="st1" d="M407.79,187.6c0,0-13.38,13.53-36.61,10.18c-23.23-3.36-21.79-20.37-18.31-28.32
		c3.33-7.59,15.46-15.87,32.61-10.04l2.67-1.82c0,0-10.08-8.45-20.32-7.8c-10.25,0.65-28.29,8.61-33.82,21.3
		c-5.53,12.68,1.03,28.88,27.51,38.58c26.47,9.7,47.61,2,53.13,0c5.53-2,10.36-11.6,10.36-11.6L407.79,187.6L407.79,187.6z"/>
	<path class="st1" d="M347.33,158.3c5.81-3.58,13.79-5.57,13.79-5.57l-7.28-4.18l-10.44,2.41c0,0-18.01,9.13-18.01,30.44
		c0,19.09,16.36,29.17,29.33,33.44c12.97,4.26,45.06,14.05,51.88,28.27c6.83,14.22,6.12,19.64,6.12,19.64s10.1-16.17-0.83-28.12
		c-10.91-11.95-21.11-16.82-33.09-19.5s-31.87-9.85-39.93-20.61C330.82,183.77,334.66,166.11,347.33,158.3"/>
	<path class="st1" d="M341.81,130.76c0,0-14.14-9.45-4.5-27.08c10.03-18.35,50.42-24.86,72.83-19.18c0,0-19.9-14.19-52.53-5.88
		c-28.59,7.29-35.07,16.15-41.31,31.96c-6.23,15.8,17.07,32.76,26.88,35.53c9.8,2.76,13.38,2.42,13.38,2.42l9.35-10.04
		L341.81,130.76L341.81,130.76z"/>
	<path class="st1" d="M480.83,16.28c0,0,40.09,3.78,40.09,27.64c0,16.97-10.11,23.54-26.12,30c-19.07,7.69-46.08,13.73-46.6,14.07
		c-0.52,0.34-15,9.04-15,9.04l33.21,21.75c0,0,1.02-15.07,9.32-21.75c8.32-6.68,47.52-28.59,51.81-37.67
		c4.29-9.08,9.24-19.01-2.23-30.15C513.86,18.06,496.71,13.3,480.83,16.28L480.83,16.28z"/>
	<path class="st1" d="M475.75,16.89C451.9,20.12,440.8,33.1,440.8,45.14s9.53,17.38,22.82,21.05c0,0-31.91,1.85-31.91-22.46
		C431.7,19.44,470.15,14.26,475.75,16.89L475.75,16.89z"/>
	<path class="st2" d="M501.05,245c-5.7-5.5-10.38-7.73-12.73-8.14c-2.34-0.41-5.47,0.9-5.47,0.9s9.65,1.03,5.88,10.62
		c-3.77,9.57-21.69,4.59-17.72-6.21c3.97-10.79,35.03-15.83,54.17-5.66c0,0-9.98-17.05-32.89-12.15
		c-22.92,4.89-31.78,11-32.38,23.83c-0.61,12.83,13.24,14.77,24.24,14.56c11-0.2,11.4-1.43,14.77-7.54
		C502.28,249.09,501.05,245,501.05,245L501.05,245z"/>
	<path class="st2" d="M433.13,255.5c0,0,3.73,20.93,49.53,20.93s49.97-27.82,45.85-35.92c0,0,6.67,3.23,5.59,17.28
		c-1.08,14.06-17.57,28.87-49.04,28.87C453.6,286.66,431.75,277.49,433.13,255.5L433.13,255.5z"/>
	<path class="st2" d="M377.93,164.24c7.19,0,11.7,2.9,11.7,7c0,4.1-6.26,8.67-11.83,5.48c0,0,3.67,4.29,12.37,4.23
		c8.68-0.05,8.08-2.41,7.96-2.11c-0.12,0.3-2.78,10.49-15.2,11.16c-12.43,0.67-16.35,2.78-19.01-9.84
		C361.27,167.56,377.93,164.24,377.93,164.24L377.93,164.24z"/>
	<path class="st2" d="M366.1,152.73c0.37,0-18.55,3.05-23.83,17.49c-5.28,14.44,3.17,27,20.66,32.39
		c17.49,5.4,38.73-1.52,48.12-10.79l13.96,7.39c0,0-13.85,15.49-36.62,16.43c-22.77,0.94-45.43-14.21-53.17-27.36
		C327.48,175.13,336.53,153.08,366.1,152.73L366.1,152.73z"/>
	<path class="st2" d="M594.1,150.02c0,0-12.82,4.94-14.29,17.96l-0.73,7.35c0,0-0.63,10.82,15.03,10.82s17.12-15.23,4.63-15.23
		c-12.51,0-11.24,11.24-4.94,11.66c0,0-10.4-0.73-10.08-9.66c0.31-8.93,15.13-10.62,25.53-6.1c10.4,4.52,12.4,9.98,9.46,18.7
		c-2.94,8.72-20.39,8.82-32.25,9.46c-11.87,0.64-19.86-3.16-22.17-20.48c-2.31-17.34,15.34-27.42,33.62-25.74L594.1,150.02
		L594.1,150.02z"/>
	<path class="st2" d="M585.24,117.13c3.7,0.72,7.49,0.97,10.23,0.26c4.19-1.09,5.28-1.39,6.44-3.61c0,0-4.52,1.47-9.3,1.35
		c-5.93-0.15-9-2.44-9-4.97c0-2.54,2.26-5.59,10.55-5.59s14.39,6.38,12.51,11.35c-2.48,6.6-12.3,7.54-22.54,5.66
		c-10.23-1.88-24.58-10.04-24.58-10.04s7.99,11.81,15.08,14.05c7.08,2.25,19.07,5.27,28.28,1.16c9.2-4.11,13.15-8.83,10.96-15.32
		c-2.18-6.48-14.41-15.56-25.07-12.71c-10.66,2.84-13.99,7.93-10.83,12.9C581.13,116.53,585.24,117.13,585.24,117.13L585.24,117.13z
		"/>
	<path class="st2" d="M555.46,108.76c-2.37-14.45,10.32-25.75,31.81-25.75c21.49,0,41.07,13.3,41.07,30.35
		c0,20.52-18.74,28.2-32.91,33.43c0,0,10.08,1.92,17.99,1.27c7.89-0.65,28.34-11.53,30-23.03c1.67-11.5,5.44-29.56-19.04-40.45
		C599.91,73.7,560.16,70.8,534.55,95.8C534.55,95.81,549.41,110.66,555.46,108.76L555.46,108.76z"/>
	<path class="st2" d="M346.46,107.2c0,0-7.57,7.39-7.57,16.47c0,9.06,7.66,17.34,24.74,16.98c17.08-0.35,13.3-13.02,13.3-13.02
		s-5.99,3.96-18.05,1.32c-12.06-2.64-15.66-10.13-9.24-20.33C356.06,98.4,346.46,107.2,346.46,107.2L346.46,107.2z"/>
	<path class="st2" d="M363.23,115.22c0,0,3.21-0.79,5.74,1.46c2.55,2.26,0.91,6.82-5.74,6.82c-6.67,0-10.75-4.65-8.97-10.15
		c1.78-5.5,8.74-11.8,23.01-12.74c14.28-0.94,15.92,3.85,18.17,9.27c2.26,5.4-1.32,10.38-4.6,13.02c-3.29,2.63-8.47,3.43-8.47,3.24
		c0-0.19,3.39-6.34-4.7-11.57C369.58,109.36,363.23,115.22,363.23,115.22L363.23,115.22z"/>
	<path class="st2" d="M340.45,141.76c0,0-12.71-5.1-12.71-22.71c0-17.62,13.45-28.74,29.76-34.77c16.32-6.03,30.05-5.38,39.32-4.18
		c9.27,1.21-15.3-8.81-35.43-4.45c-20.13,4.36-39.51,20.69-44.69,32C311.51,118.94,321.99,138.87,340.45,141.76L340.45,141.76z"/>
	<path class="st2" d="M484.11,56.6c0.8-0.33-1.85,4.42-14.47,4.42c-12.6,0-17.87-9.05-17.87-15.91s7.35-20.56,28.39-20.56
		c21.04,0,27.53,14.32,29.12,22.51c0,0-17.26,22.51-38.67,24.35c-21.42,1.84-28.14-1.96-33.78-12.24s-3.06-13.7-3.06-13.7
		s3.43,9.66,11.87,15.3c8.44,5.63,23.46,5.36,34.12,0.99c10.66-4.36,10.25-14.05,5.81-17.04c-4.44-2.98-16.3-5.32-16.63,5.73
		c0,0-2.27,3.47,2.3,5.09C475.82,57.19,479.56,58.46,484.11,56.6L484.11,56.6z"/>
	<path class="st2" d="M639.45,133.88l-22.31,14.88c0,0,16.73,2.48,23.54,13.47C640.69,162.23,644.88,145.5,639.45,133.88
		L639.45,133.88z"/>
	<path class="st3" d="M280.05,270.74c0,0,4.38,73.23,86.12,59.57C366.17,330.29,355.85,260.94,280.05,270.74"/>
	<path class="st3" d="M390.41,356.85c0,0,5.42,77.87,86.38,59.83C476.79,416.67,470.59,346.29,390.41,356.85"/>
	<path class="st3" d="M595.16,331.02c0,0,13.7-73.7,86.79-58.47C681.95,272.55,676.47,343.81,595.16,331.02"/>
	<path class="st3" d="M483.76,441.38c0,0-1.44-25.59,29.94-49.73c31.38-24.14,56.25-6.04,56.25-6.04S561.98,456.35,483.76,441.38
		L483.76,441.38z"/>
	<path class="st4" d="M598.59,328.53l83.32-57.31c0,0-5.16,40.61-38.08,57.19C610.91,344.99,598.59,328.53,598.59,328.53
		L598.59,328.53z"/>
	<path class="st4" d="M487.31,437.73l80.65-53.35c0,0,3.1,26.28-27.85,49.68C509.16,457.45,486.82,443.16,487.31,437.73
		L487.31,437.73z"/>
	<path class="st4" d="M393.8,359.8l80.07,55.79c0,0-17.54,13.24-49.38-6.41C392.64,389.54,390.64,368.73,393.8,359.8L393.8,359.8z"
		/>
	<path class="st4" d="M283.37,273.32l77.6,53.28c0,0,1.25,3.23-3.62,5.39c-4.86,2.16-15.91,0.01-26.35-2.45
		c-13.94-3.29-43.06-9.17-50.51-54.94L283.37,273.32L283.37,273.32z"/>
	<path class="st2" d="M443.66,354.1c0-26.1,25.23-38.3,42.5-42.5c17.27-4.21,49.61-9.25,57.77-27.23c0,0,2.65,9.08,2.65,41.84
		c0,32.76-29,61.76-61.53,61.76C452.51,387.96,443.66,368.7,443.66,354.1"/>
	<path class="st2" d="M416.09,273.84c0,0,0,22.65,0,44.61c0,21.97,2.33,31.71,14.15,42.82c0,0,0.82-39.43,23.48-58.94
		C453.72,302.33,433.11,303.4,416.09,273.84L416.09,273.84z"/>
	<path class="st2" d="M552.05,268.38c0-20.67,14.93-36.08,33.87-41.48c18.94-5.4,37.13-8.85,53.01-21.09c0,0,3.47,11.49,2.6,40.76
		s-14.07,40.95-30.15,49.76C595.29,305.13,552.05,303.02,552.05,268.38"/>
	<path class="st2" d="M536.38,203.53v30.64l8.6,16.1c0,0,1.48-11.8,10.21-19.05c8.74-7.25,21.37-14.78,21.37-14.78
		s-5.1,0-20.09-4.83C541.49,206.76,536.38,203.53,536.38,203.53L536.38,203.53z"/>
	<path class="st2" d="M379.7,216.08c0.98,0,10.11,0.19,25-3.32c14.89-3.51,22.48-11.92,22.48-11.92l-1.96,35.96
		c0,0-11.13,7.04-9.77,20.9c1.37,13.87-11.13,36.92-25.79,40.64c-14.66,3.72-35.22,5.06-52.36-11.92
		c-17.15-16.98-17.39-29.9-17.39-43.77c0-13.87,1.47-42.79,1.47-42.79s-3.82,6.45,19.04,16.02c22.86,9.58,32.83,5.87,49.62,17.98
		c16.81,12.11,22.28,30.09,22.28,30.09s5.47-14.26-1.17-25.98C404.51,226.24,379.7,216.08,379.7,216.08"/>
	<polygon class="st2" points="455.54,150.81 430.95,165.43 404.68,147.72 429.06,130 	"/>
	<path class="st2" d="M504.71,183.81c-0.63,0.22-5.68,11.77-18.28,13.45c-12.6,1.67-25.84-15.76-25.84-15.76l22.06-16.07
		L504.71,183.81L504.71,183.81z"/>
	<path class="st2" d="M347.33,149.76c0,0-17.56,1.92-25.95,12.74v-29.53L347.33,149.76L347.33,149.76z"/>
	<path class="st2" d="M555.46,147.03c-0.93,0.31-22.28,18.41-22.28,18.41l-25.68-16.71l25.68-18.71L555.46,147.03L555.46,147.03z"/>
	<path class="st2" d="M508.4,111.57l-29.08,19.49c0,0-11.85-7.76-11.85-19.5c0-11.75,13.36-16.43,13.36-16.43L508.4,111.57
		L508.4,111.57z"/>
	<path class="st2" d="M538.38,62.99v25.08c0,0-6.38,6.72-6.72,7.08c-0.34,0.34-20.88-13.49-20.88-13.49S535.54,73.14,538.38,62.99
		L538.38,62.99z"/>
	<path class="st2" d="M431.19,96.3l30.91-24.51c0,0-30.91-4.33-30.91-24.29c0-19.95,23.15-32.61,48.91-32.61
		c25.76,0,51.09,7.98,51.09,30.79s-30.21,35.34-30.21,35.34l6.17,1.71c0,0,38.26-9.12,38.26-38.26c0-29.14-40.27-39.06-62.32-39.06
		c-22.05,0-66.82,10.83-66.82,39.35c0,12.66,6.85,19.5,6.85,19.5l-0.57,25.99L431.19,96.3L431.19,96.3z"/>
	<path class="st5" d="M685.23,270c-25.95-8.42-46.59,0.71-46.59,0.71s5.58-11.19,5.58-24.69c0-13.53-0.12-42.26-0.12-42.26
		c5.01-6.26,11.57-20.21,2.84-36.12c-0.88-1.61-1.82-3.08-2.84-4.44v-30c3.73-4.95,6.49-11.09,6.49-18.41
		c0-25.57-32.5-42.31-65.12-42.31c-21.83,0-37.36,6.86-44.08,11.17V65.65v-0.01c5.04-5.96,7.88-12.75,7.88-19.97
		c0-23.6-30.47-42.73-68.08-42.73c-37.59,0-68.08,19.14-68.08,42.73c0,7.21,2.84,14,7.88,19.97v17.84c-3.67-2.41-19.76-11-44.08-11
		c-34.35,0-65.14,17.88-65.14,42.31c0,7.34,2.76,13.5,6.51,18.47v29.87c-1.02,1.37-1.99,2.87-2.84,4.5
		c-8.49,16.03-2.16,29.86,2.84,36.12c0,0-0.12,28.73-0.12,42.26c0,13.5,5.55,24.69,5.55,24.69s-20.61-9.13-46.57-0.71
		c0,0-1.03,31.79,28.12,53.74c29.15,21.94,58.68,12.36,64.16,10.28v-30.84c0,0,10.94,1.69,23.95-2.45
		c13-4.14,19.75-11.09,19.75-11.09s0,16.85,0,33.48c0,16.63,7.1,30.32,7.1,30.32s-16.36-3.02-33.75,2.64
		c2.72,35.53,25.5,57.28,49.05,64.35c23.53,7.09,39.71,1.39,39.71,1.39v27.61c27.71,0,49.96,2.78,74.04-18.18
		c24.08-20.99,23.23-49.42,23.23-49.42c-12.48-4.64-37.67-9.15-61.77,6.67c-24.12,15.81-29.53,38.12-29.53,38.12v-35.41
		c0,0,29.53-2.71,44.41-16.48c14.89-13.77,23.67-31.1,23.67-51.59c0-16.63,0-33.48,0-33.48s6.74,6.97,19.75,11.09
		c13.01,4.14,23.95,2.45,23.95,2.45v30.84c5.47,2.1,34.99,11.68,64.16-10.28C686.28,301.81,685.23,270,685.23,270L685.23,270z
		 M515.34,394.72c25.06-16.79,51.16-9.39,51.16-9.39s-0.54,22.52-20.35,39.92c-27.29,23.98-58.44,12.36-58.44,12.36
		S490.74,411.2,515.34,394.72L515.34,394.72z M585.47,78.8c27.87,0,55.8,14.47,55.8,36c0,13.31-10.9,23.83-24.58,29.85
		c-6.61,2.91-7.62-0.6-24.51,1.62c-8.85,1.16-22.27,6.42-28.73,15.83c-6.03,8.78-3.42,16.6-1.18,20.59l-23-16.17
		c0,0,38.28-26.89,48.68-34.19c9.51,0.67,29.74-4.38,29.74-17.69c0-9.73-12.71-17.68-25.87-17.68c-11.06,0-17.83,6.22-17.83,11.54
		c0,5.72,7.23,11.55,17.26,11.55c4.41,0,8.17-2,10.7-6.3c-7.61,5.72-22.76,2.14-22.76-4.5c0-3.74,4.86-7.63,13.41-7.63
		c7.09,0,19.63,4.21,19.63,13.01c0,5.92-6.67,10.66-12.11,11.73c-4.9,0.98-16.64,0.79-26.95-6.44c-7.53-5.29-13.8-9.7-18.06-12.7
		c-4.27-2.99-13.05-9.16-16.51-11.61C542.78,90.25,559.03,78.8,585.47,78.8L585.47,78.8z M638.16,139.61v17.23
		c-7.09-6.08-14.19-7.93-14.19-7.93S631.23,145.83,638.16,139.61L638.16,139.61z M579.51,175.55c2.64,10,19.26,11.39,24.37,3.69
		c-0.6,0.38-7.43,4.71-13.19,0.72c-5.89-4.07-2.97-9.39,1.06-11.39c3.18-1.57,11.85-4.23,19.58,1.37c9.16,6.6,5.14,15.94-3.14,19.64
		c-8.32,3.72-20.24,5.21-30.53-0.35c-11.08-6-9.74-17.46-6.64-23.25c3.76-7,17.22-19.49,43.4-15.04c0,0-14.77-0.37-23.6,4.59
		C581.99,160.53,576.87,165.54,579.51,175.55L579.51,175.55z M525.02,191.98c-29.38-20.65-36.24-25.46-36.24-25.46l18.25-12.82
		c0,0,39.89,28.01,53.43,37.52c18.36,12.89,46.67,7.02,55.16,0.04c0,0-7.23,12.96-23.42,18.41
		C576,215.14,554.42,212.63,525.02,191.98L525.02,191.98z M569.75,217.66c0,0-19.71,6.56-25.76,25.6c0,0-2.29-4.22-4.89-6.94V206.6
		C539.11,206.6,549,215.61,569.75,217.66L569.75,217.66z M481.56,266.91c12.36,0,25.38-8.04,25.38-16.9
		c0-5.92-6.02-13.31-17.3-13.31c-3.59,0-6.79,1.05-6.79,1.05s4.26,0,8.04,2.03c8.04,4.31,8.06,10.67,4.63,14.7
		c-3.43,4.01-12.06,7.36-20.41,4.64c-8.36-2.75-11.27-8.93-10.94-14.21c0.34-5.25,6.31-16.07,28.29-18.07
		c14.67-1.33,38.79,4.49,38.79,24.48c0,19.54-22.58,31.72-48.8,31.72c-25.57,0-48-12.22-48-28.54c0-6.85,3.32-16.69,15.64-25.34
		c13.5-9.5,56.86-40.08,56.86-40.08l18.36,12.9c0,0-9.76,7.81-24.16,14.51c-10.19,4.75-24.91,8.08-30.47,11.43
		c-13.47,8.08-14.63,14.73-14.63,19.54C456.01,255.73,464.12,266.91,481.56,266.91L481.56,266.91z M372.84,110.76
		c-5.5,0-8.78,3.32-9.68,4.53c1.8-1.21,4.23-1.76,6.1-1.76c5.32,0,9.43,3.36,9.43,7.21c0,4.31-4.86,7.81-10.94,7.12
		c-11.42-1.31-18.59-7.12-18.59-13.23c0-5.68,6.98-13.46,22.74-13.46c7.5,0,21.82,3.28,21.82,12.25c0,2.31-0.9,4.8-3.48,6.61
		c-3.02,2.12-6.63,4.64-6.63,4.64s0.84-1.44,0.84-3.8C384.46,114.62,378.57,110.76,372.84,110.76L372.84,110.76z M464.12,113.75
		l-25.46-17.88c0,0,0.45-0.31,1.22-0.86c14.19-9.94,29.94-17.33,46.41-22.67c1.5-0.49,2.98-1.02,4.46-1.59
		c7.15-2.82,18.99-9.81,18.99-22.59c0-10.72-11.28-19.43-25.55-19.43c-12.83,0-24.81,8.26-24.81,16.9c0,7.81,8.63,13.31,16.74,13.31
		c3.65,0,5.66-0.72,6.85-1.08c-9.55-0.63-15.72-5.84-15.72-11.12c0-6.7,9.01-11.17,17.42-11.17c7.54,0,17.45,3.57,17.45,11.98
		c0,5.1-1.67,10.22-9.66,15.07c-4.22,2.56-15.19,6.8-25.4,6.8c-17.41,0-31.96-11.13-31.96-23.3c0-16.69,20.71-29.26,46.14-29.26
		c25.45,0,46.15,12.83,46.15,28.83c0,7.77-4.7,14.79-13.62,21.14c-2.9,2.06-36.58,25.45-39.14,27.21
		C462.32,102.39,464.12,113.75,464.12,113.75L464.12,113.75z M390.08,129.95c12.28-8.7,10.83-15.3,10.83-15.3l22.37,15.71
		L390.6,153.3c-11.12-6.75-23.19-7.39-23.19-7.39S382.95,135,390.08,129.95L390.08,129.95z M431.67,90.96c0,0-2.83-2.06-6.12-4.34
		V70.3c5.13,4.57,11.69,8.48,19.24,11.46C438.99,85.84,433.37,89.77,431.67,90.96L431.67,90.96z M564.15,123.37
		c9.93,7.02,12.53,7.06,12.53,7.06l-18.13,12.73l-69.78-49.01c0,0,7.72-5.42,10.37-7.28c3.39-0.59,6.68-1.32,9.83-2.19
		C508.97,84.68,550.2,113.51,564.15,123.37L564.15,123.37z M518.36,81.46c7.23-2.95,13.49-6.75,18.44-11.17v16.49
		c-3.27,2.4-5.06,4.08-5.06,4.08C528.67,88.71,520.34,82.84,518.36,81.46L518.36,81.46z M551.57,148.07l-11.27,7.91v-15.83
		L551.57,148.07L551.57,148.07z M535.73,136.94c0,0,0,8.89,0,13.79c0,7.28-3.44,10.89-3.44,10.89l-18.25-12.82l19.27-13.54
		L535.73,136.94L535.73,136.94z M474.88,103.91l6.89-4.86l19.28,13.54l-19.27,13.56l-6.91-4.86
		C468.85,117.09,468.85,108.16,474.88,103.91L474.88,103.91z M508.05,117.51l18.28,12.83l-69.78,49.01l-18.28-12.83L508.05,117.51
		L508.05,117.51z M481.77,171.43l18.28,12.82l-5.24,3.69c-7.83,5.48-18.24,5.48-26.05,0l-5.24-3.69L481.77,171.43L481.77,171.43z
		 M431.29,161.62c0,0-3.44-3.61-3.44-10.89c0-4.9,0-13.79,0-13.79l2.42-1.69l19.28,13.54L431.29,161.62L431.29,161.62z M474.79,202
		l-18.25,12.82l-54.83-38.49c3.43-10.36-4.57-17.8-4.57-17.8l7.88-5.54L474.79,202L474.79,202z M411.99,148.07l11.3-7.92v15.83
		L411.99,148.07L411.99,148.07z M395.2,181.45c0,0-2.48,4.65-10.9,6.33c-8.42,1.67-16.2-2.06-18.06-7.28
		c-1.86-5.23,1.09-10.33,7.4-13.49c7.1-3.57,15.03-1.22,17.94,0.14c4.21,1.99,4.86,6.44,2.37,9.25c-1.81,2.08-7.88,5.05-16.14,0.31
		C381.11,181.89,388.8,184.45,395.2,181.45L395.2,181.45z M385.49,159.4c0,0-10.36-0.1-15.87,3.48c-5.5,3.55-9.61,6.74-10.15,13.95
		c-0.53,6.71,3.73,14.07,16.15,15.96c12.45,1.89,21.56-3.02,25.99-6.72l19.39,13.61c0,0-11.51,10.89-28.8,11.92
		c-17.82,1.08-36.66-7.09-47.59-15.58c-12.63-9.83-11.32-27.27,5.54-37.64C361.68,151.29,378.77,153.12,385.49,159.4L385.49,159.4z
		 M423.29,206.6v29.72c-2.6,2.72-4.89,6.94-4.89,6.94c-6.07-19.04-25.76-25.6-25.76-25.6C413.38,215.61,423.29,206.6,423.29,206.6
		L423.29,206.6z M436.26,232.59c-1.74,1.33-11.2,9.16-11.2,21.91c0,14.56,15.54,31.74,46.23,35.58c0,0-9.7,3.17-19.14,10.91
		c0,0-13.54-3.32-25.42-18.73C415.11,267.21,418.73,243.49,436.26,232.59L436.26,232.59z M419.89,45.68
		c0-20.13,26.06-37.51,61.34-37.51c34.66,0,61.34,17.27,61.34,37.51c0,13.92-12.45,26.32-31.42,32.76c0.48-0.34,0.97-0.67,1.46-1.02
		c12.33-8.66,23.91-16.02,23.91-31.74c0-19.82-26.39-33.67-55.28-33.67c-31.48,0-55.28,15.43-55.28,33.67
		c0,12.56,10.55,23.12,29.72,28.43c-1.65,1.16-3.32,2.34-5.53,3.89C432.32,71.63,419.89,59.86,419.89,45.68L419.89,45.68z
		 M376.91,78.8c14.4,0,28.39,3.44,36.22,8.93c13.42,9.45,61.68,43.33,61.68,43.33l-18.25,12.82c0,0-41.78-29.33-54.15-38.03
		c-9.53-6.7-20.43-8.94-30.49-8.94c-12.06,0-28.24,5.66-28.24,17.71c0,12.93,19.87,18.71,29.42,17.46l-19.08,13.42
		c-27.1-6.12-32.88-21.35-32.88-30.72C321.11,92.62,350.2,78.8,376.91,78.8L376.91,78.8z M338.45,148.95c0,0-7.24,2.04-14.25,7.95
		v-17.23C331.16,145.86,338.45,148.95,338.45,148.95L338.45,148.95z M283.41,273.27c27.68-5.24,47.81,9.25,47.81,9.25
		c4.5,6.3,14.73,12.74,14.73,12.74c12.89,13.73,15,31.33,15,31.33C316.38,338,285.27,303.16,283.41,273.27L283.41,273.27z
		 M392.68,293.58c-5.95,3.2-26.06,9.94-45.55-1.55c-20.47-12.09-24.95-31.55-24.95-41.73c0-10.18,2.1-40.62,2.1-40.62
		s9.64,9.2,36.11,15.49c25.57,6.08,38.84,15.88,43.24,30.53C407.57,268.78,404.82,283.2,392.68,293.58L392.68,293.58z M413.12,253.6
		c-7.44-27.71-58.26-31.97-73.87-41.8c-13.84-8.72-25.95-25.45-17.08-42.79c8.7-16.98,29.68-17.16,30.53-17.16
		c-17.94,4.46-23.07,18.82-23.07,27.79c0,8.97,4.89,20.78,19.99,29.26c16.49,9.25,34.24,11.62,49.48,20.59
		C413.52,237.95,413.12,253.6,413.12,253.6L413.12,253.6z M417.83,323.12c0-18.5,0.78-38.87,0.78-38.87s9.16,17.57,29.32,20.41
		c0,0-20.9,17.15-22.2,48.78C425.72,353.46,417.83,341.62,417.83,323.12L417.83,323.12z M394.18,359.9c8.89-2,19.76-1.7,30.59,1.36
		c0.14,0.24,12.17,20.52,37.75,27.36c4.71,7.27,8.26,15.95,10.1,26.23C439.62,423.51,399.46,401.98,394.18,359.9L394.18,359.9z
		 M517.71,374.89c-19.15,14.07-44,13.07-53.34,8.93c-8.25-3.67-14.89-10.62-17.38-18.67c-5.73-18.58,2.59-34.05,25.63-45.18
		c22.58-10.89,53.28-10.63,69.55-29.12c0,0,2.35,19.41,2.35,33.87C544.54,339.15,539,359.27,517.71,374.89L517.71,374.89z
		 M540.7,280.5c-7.65,12.64-23.53,18.36-37.81,22.28c-14.45,3.96-47.73,15.43-56.63,34.87c-8.29,18.1,0.29,32.53,1.51,34.45
		c-7.08-8.48-13.62-25.4-5.08-43.03c8.61-17.76,21.49-26.31,38.49-33.94c12.86-5.78,27.36-6.7,39.26-13.41
		c14.89-8.36,21.72-20.54,18.41-33.1c-2.75-10.43-9.05-15.57-9.83-16.18c0.84,0.42,7.15,3.92,11.99,12.52
		C546.11,253.96,548.52,267.57,540.7,280.5L540.7,280.5z M549.19,253.6c0,0-0.41-15.22,12.28-23.42s26.61-11.92,43.99-22.62
		c14.74-9.05,17.83-19.71,17.83-28.69c0-9.51-15.79-23.6-37.28-14.09c11.81-15.34,41.18-13.45,52.15,1.08
		c0.75,0.99,1.43,2.04,1.99,3.14c8.87,17.34-3.05,34.41-17.08,42.79C609.02,220.19,562.85,223.27,549.19,253.6L549.19,253.6z
		 M569.69,293.58c-12.14-10.37-14.88-24.8-10.94-37.88c4.41-14.64,17.69-24.44,43.24-30.53c26.47-6.3,36.11-15.49,36.11-15.49
		s2.1,30.44,2.1,40.62c0,10.18-4.48,29.66-24.96,41.73C595.75,303.51,575.62,296.77,569.69,293.58L569.69,293.58z M601.42,326.58
		c0,0,2.11-17.6,15.01-31.33c0,0,10.19-6.44,14.7-12.74c0,0,20.14-14.49,47.81-9.25C677.09,303.16,645.98,338,601.42,326.58
		L601.42,326.58z"/>
	<path class="st6" d="M0.26,504.55h107.27v20.47H68.61c0,0,0,56.26,0,69.07c0,12.81,0.88,17.8,6.23,23.19
		c6.45,6.49,19.14,4.26,19.14,4.26v20.05c0,0-6.74,1.86-22.99,1.86c-15.56,0-31.81-11.66-31.81-32.31c0-20.65,0-86.12,0-86.12H0.26
		V504.55L0.26,504.55z M178.26,532.03c0,0-10.9-2.91-23.39-2.91c-25.63,0-39.41,12.98-43.93,22.44c-5.06,10.63-2,24.5,8.18,32.21
		c10.18,7.72,19.57,10.3,27.12,12.83c7.55,2.52,16.24,5.8,16.24,15.39s-8.6,14.06-22.13,14.06c-13.54,0-27.78-6.53-27.78-6.53v19.53
		c0,0,11.51,4.38,33.28,4.38c21.76,0,36.38-10.33,41.33-18.03c4.97-7.7,6.91-20.58-0.22-31.33c-7.12-10.75-18.1-13.53-28.4-17.57
		c-10.29-4.04-21.27-6.34-21.27-16.71c0-10.37,11.43-13.75,20.54-13.75s20.43,4.29,20.43,4.29v-18.3H178.26z M229.84,598.94
		c1.1,7.09,5.72,19.9,24.55,23.79c23.49,4.85,42.94-1.4,42.94-1.4v18.09c0,0-40.34,10.71-67.57-2.41
		c-26.02-12.55-31.14-40.24-27.94-59.46c3.81-22.89,22.36-48.4,57.49-48.4c43.32,0,52.03,35.92,52.03,46.72
		c0,10.47-8.59,18.25-18.25,18.25h-59.11C231.41,594.09,229.46,596.39,229.84,598.94L229.84,598.94z M229.83,572.97
		c-0.15,2.4,1.78,4.4,4.19,4.4h45.82c2.16,0,3.95-1.65,4.18-3.78c1.28-11.79-5.62-22.78-16.18-26.81c-11.68-4.45-24.47,0.23-32,9.85
		C231.3,562.46,230.07,568.84,229.83,572.97L229.83,572.97z M460.96,532.03c0,0-10.9-2.91-23.39-2.91
		c-25.63,0-39.43,12.98-43.93,22.44c-5.06,10.63-2,24.5,8.18,32.21c10.18,7.72,19.57,10.3,27.12,12.83
		c7.55,2.52,16.24,5.8,16.24,15.39s-8.59,14.06-22.13,14.06s-27.78-6.53-27.78-6.53v19.53c0,0,11.51,4.38,33.28,4.38
		s36.37-10.33,41.33-18.03c4.97-7.7,6.91-20.58-0.2-31.33c-7.12-10.75-18.1-13.53-28.4-17.57c-10.29-4.04-21.27-6.34-21.27-16.71
		c0-10.37,11.43-13.75,20.54-13.75c9.1,0,20.43,4.29,20.43,4.29V532.03L460.96,532.03z M512.54,598.94
		c1.09,7.09,5.72,19.9,24.55,23.79c23.5,4.85,42.94-1.4,42.94-1.4v18.09c0,0-40.34,10.71-67.57-2.41
		c-26.02-12.55-31.14-40.24-27.94-59.46c3.81-22.89,22.36-48.4,57.49-48.4c43.32,0,52.03,35.92,52.03,46.72
		c0,10.47-8.59,18.25-18.25,18.25h-59.11C514.09,594.09,512.15,596.39,512.54,598.94L512.54,598.94z M512.51,572.97
		c-0.15,2.4,1.8,4.4,4.19,4.4h45.82c2.16,0,3.95-1.65,4.18-3.78c1.28-11.79-5.62-22.78-16.18-26.81
		c-11.68-4.45-24.48,0.23-31.98,9.85C514,562.46,512.77,568.84,512.51,572.97L512.51,572.97z M321.92,604.11
		c0,26.67,22.28,39.35,38.07,39.35c8.64,0,17-1.91,17-1.91v-19.73c-5.2,0.19-13.92,1.17-19.67-4.78
		c-5.74-5.96-5.97-10.51-5.97-23.78v-38.31c0-2.49,2.01-4.49,4.5-4.49h23.6v-18.59h-23.6c-2.48,0-4.5-2.01-4.5-4.5v-22.81
		l-29.42,6.82C321.92,511.37,321.92,573.62,321.92,604.11L321.92,604.11z M709.78,580.19c0,16.36,0,19.46,0,37.05
		c0,17.57-8.85,37.02-25.99,50.1c-14.94,11.42-33.75,15.66-52.9,11.57v-19.48c0,0,32.19,8.6,45.52-15.98
		c-8.89-0.19-34.72,1.86-50.21-7.64c-15.47-9.49-26.51-22.27-26.51-48.53c0-30.46,21.94-58.15,59.65-58.15
		C700.88,529.12,709.78,563.82,709.78,580.19L709.78,580.19z M680.35,578.37c0-16.4-8.68-33.04-26.23-33.04
		c-17.56,0-27.26,19.97-28.25,32.05c-0.99,12.07,0.19,23.93,8.96,35.11c8.14,10.4,19.57,11.7,40.6,11.84
		c2.72,0.01,4.94-2.18,4.94-4.9v-41.06H680.35z M783.36,641.7v-41.03c0-8.82,7.15-15.96,15.96-15.96s15.96,7.15,15.96,15.96v41.03
		h15.69v-41.03c0-8.82,7.15-15.96,15.96-15.96s15.96,7.15,15.96,15.96v41.03h15.69c0,0,0-32.57,0-44.01
		c0-11.95-9.49-24.37-26.55-24.37c-17.18,0-25.48,9.8-25.48,9.8s-6.6-9.8-21.45-9.8c-16.62,0-24.84,9.05-24.84,9.05v-6.52h-12.63
		v65.86L783.36,641.7L783.36,641.7z M912.55,641.7v-40.05c0-9.36,7.58-16.94,16.94-16.94s16.94,7.58,16.94,16.94v40.05h15.69
		c0,0,0-34.81,0-45.36s-9.08-23.15-26.81-23.15c-17.73,0-25.83,9.21-25.83,9.21v-6.56h-12.63v65.86H912.55L912.55,641.7z
		 M744.12,622.98c-5.65,0-10.23,4.59-10.23,10.23c0,5.65,4.59,10.23,10.23,10.23c5.65,0,10.23-4.59,10.23-10.23
		C754.36,627.57,749.77,622.98,744.12,622.98L744.12,622.98z"/>
	<path class="st4" d="M241.84,779.71c0,0.34-0.41,0.78-1.21,1.31c-0.8,0.53-1.97,1.08-3.52,1.61c-1.54,0.53-3.12,0.6-4.72,0.2
		c-2.27-0.53-4.12-1.88-5.53-4.03c-1.4-2.15-2.48-4.93-3.21-8.34c-0.73-3.42-1.24-7.4-1.51-11.96c-0.27-4.56-0.48-9.51-0.6-14.89
		c-3.21,3.62-6,6.71-8.34,9.25c-2.35,2.54-4.67,4.99-6.94,7.35c-2.29,2.34-4.79,4.83-7.54,7.44c-2.75,2.61-6.21,5.73-10.36,9.35
		c-0.27,0.14,0-0.41,0-0.41c0.41-1.08,1.24-2.59,2.52-4.53s3.12-4.56,5.54-7.85c2.41-3.28,5.54-7.44,9.35-12.47
		c3.82-5.04,8.55-11.17,14.18-18.4l-2.2-32.79c-0.27-3.89-0.84-6.6-1.71-8.14c-0.87-1.54-2.08-2.29-3.62-2.22
		c-1.55,0.07-3.32,0.8-5.34,2.22c-2.01,1.4-4.22,3.12-6.64,5.13c-3.09,2.55-5.63,5.57-7.65,9.05c-2.01,3.48-3.48,6.3-4.42,8.45
		c-1.08,2.41-1.65,4.83-1.71,7.24c-0.07,2.41,0.3,4.46,1.1,6.14c0.8,1.67,2.11,2.79,3.92,3.32c1.81,0.54,4.12,0.14,6.94-1.21
		c1.61-0.8,3.25-1.84,4.93-3.12c1.67-1.27,3.18-2.64,4.52-4.12c1.33-1.47,2.54-2.89,3.62-4.23c1.08-1.33,1.81-2.54,2.22-3.62
		l0.2,0.41c-1.88,5.1-4.01,8.89-6.44,11.36c-2.41,2.48-4.83,4.33-7.24,5.54c-3.62,1.88-6.74,2.72-9.35,2.52
		c-2.61-0.2-4.83-0.91-6.64-2.11c-1.81-1.21-3.25-2.68-4.33-4.42c-1.08-1.74-1.88-3.35-2.41-4.83c-1.35-3.62-1.28-7.51,0.2-11.66
		c1.47-4.15,3.76-8.11,6.83-11.87c3.09-3.76,6.71-7.08,10.86-9.96c4.15-2.89,8.32-4.86,12.47-5.93c5.77-1.33,10.13-0.46,13.08,2.61
		c2.95,3.09,4.7,7.31,5.23,12.67c0.41,4.7,0.78,9.46,1.1,14.28c0.33,4.83,0.71,8.59,1.1,11.27c4.95-6.44,9.99-12.98,15.09-19.61
		c5.09-6.64,9.99-12.64,14.68-18.01c4.7-5.36,9.05-9.76,13.08-13.17c4.03-3.42,7.58-5.13,10.66-5.13c1.21,0,2.48,0.27,3.82,0.8
		c1.33,0.53,2.45,1.31,3.32,2.31c0.87,1.01,1.31,2.31,1.31,3.92c0,1.61-0.67,3.48-2.01,5.63c-1.08,1.74-1.71,2.68-1.92,2.82
		c-0.2,0.14-0.23-0.1-0.1-0.71c0.14-0.6,0.37-1.47,0.71-2.61c0.34-1.14,0.5-2.15,0.5-3.02c0-0.87-0.34-1.4-1.01-1.61
		c-0.67-0.2-1.88,0.23-3.62,1.31c-3.48,2.27-7.44,5.63-11.87,10.06c-4.42,4.42-8.98,9.35-13.68,14.78
		c-4.7,5.43-9.46,11.06-14.28,16.89c-4.83,5.84-9.39,11.24-13.68,16.2c0.27,15.28,1.37,26.85,3.32,34.7
		c1.95,7.84,4.26,11.02,6.94,9.55C241.18,779.62,241.84,779.39,241.84,779.71L241.84,779.71z M395.21,735.66
		c-0.34,0.2-1.21,0.5-2.61,0.91c-1.4,0.39-2.98,0.8-4.72,1.21c-1.08,0.27-2.31,0.5-3.72,0.71c-1.4,0.2-2.84,0.44-4.33,0.71
		c-1.61,3.62-3.25,7.24-4.93,10.86c-1.67,3.62-4.26,6.37-7.74,8.25c-1.08,0.54-2.38,0.91-3.92,1.1c-1.54,0.2-3.16,0.27-4.83,0.2
		c-1.67-0.07-3.39-0.27-5.13-0.6c-1.74-0.34-3.23-0.91-4.42-1.71c-0.8,3.23-1.67,6.6-2.61,10.17c-0.94,3.55-1.71,6.76-2.31,9.65
		c-0.61,2.89-0.94,5.23-1.01,7.04c-0.07,1.81,0.44,2.72,1.51,2.72c0.54,0,1.31-0.2,2.31-0.6c1.01-0.41,1.63-1.35,1.91-2.82
		c0.27,1.61-0.14,3.14-1.21,4.63c-1.08,1.47-2.48,2.27-4.22,2.41c-3.09,0.27-5.46-0.8-7.15-3.23c-1.67-2.41-2.18-5.84-1.51-10.26
		c0-0.54,0.44-2.59,1.31-6.14c0.87-3.55,1.85-7.51,2.91-11.87c0.9-3.65,1.8-7.16,2.69-10.57c-0.23,0.37-0.45,0.76-0.68,1.12
		c-2.54,3.96-5.33,6.94-8.34,8.96c-3.02,2.01-6.21,1.95-9.55-0.2c-2.29-1.47-3.73-2.98-4.33-4.53c-0.6-1.54-0.84-3.05-0.71-4.53
		c-1.88,2.55-4.12,4.79-6.74,6.74s-4.46,3.05-5.53,3.32c-1.74,0.41-3.42,0.23-5.04-0.5c-1.61-0.73-3.02-1.71-4.22-2.91
		c-1.21-1.21-2.15-2.54-2.82-4.03c-0.67-1.47-1.01-2.75-1.01-3.82c0.03-0.35,0.07-0.75,0.11-1.13c-0.3,0.45-0.59,0.9-0.91,1.33
		c-2.82,3.89-6,7.01-9.55,9.35c-3.55,2.35-7.15,2.98-10.77,1.91c-2.01-0.53-3.52-1.81-4.53-3.82c-1.01-2.01-1.37-4.1-1.1-6.23
		c-1.74,2.82-3.69,5.1-5.84,6.85c-1.08,0.94-2.11,1.67-3.12,2.22c-1.01,0.53-2.25,0.8-3.72,0.8c-3.09,0-5.93-1.21-8.55-3.62
		c-2.61-2.41-4.06-5.7-4.33-9.85c-0.27-2.82,0.07-5.8,1.01-8.96s2.15-6.14,3.62-8.96c1.47-2.82,3.18-5.32,5.13-7.54
		c1.95-2.22,3.92-3.85,5.93-4.93c1.88-1.08,3.51-1.81,4.93-2.2c1.42-0.41,2.91-0.6,4.52-0.6c4.56,0,7.98,1.74,10.26,5.23
		c0-0.67,0.3-1.44,0.9-2.31c0.6-0.87,1.03-1.44,1.31-1.71c0.53-0.8,1.61-1.27,3.21-1.4c1.61-0.14,3.21-0.03,4.83,0.3
		c1.61,0.34,2.91,0.84,3.92,1.51c1.01,0.68,1.03,1.48,0.11,2.42c-0.8,0.8-1.95,2.45-3.42,4.93c-1.48,2.49-2.95,5.33-4.42,8.55
		c-1.48,3.23-2.82,6.61-4.03,10.17c-1.21,3.55-1.88,6.8-2.01,9.76c-0.14,3.09,0.6,4.72,2.22,4.93c1.61,0.2,3.73-0.87,6.34-3.23
		c2.61-2.34,5.5-5.89,8.66-10.66c0.23-0.35,0.46-0.72,0.69-1.09c0.07-0.27,0.14-0.53,0.2-0.82c0.94-3.48,2.04-6.97,3.32-10.45
		c1.28-3.48,2.61-6.64,4.01-9.46c1.42-2.82,2.65-4.76,3.73-5.84c0.8-0.94,2.04-1.37,3.72-1.31c1.67,0.07,3.28,0.37,4.83,0.91
		c1.54,0.54,2.68,1.14,3.42,1.81c0.73,0.67,0.63,1.21-0.3,1.61c-1.2,0.41-2.45,1.51-3.72,3.32c-1.28,1.81-2.52,3.92-3.72,6.34
		c-1.21,2.41-2.34,4.99-3.42,7.74c-1.08,2.75-2.01,5.27-2.82,7.54c-0.27,0.8-0.6,1.91-1.01,3.32c-0.41,1.42-0.73,2.82-1.01,4.22
		c-0.27,1.4-0.37,2.72-0.3,3.92c0.07,1.21,0.5,2.01,1.31,2.41c1.08,0.67,2.25,0.73,3.52,0.2c1.28-0.53,2.52-1.27,3.72-2.2
		c1.21-0.94,2.31-1.97,3.32-3.12c1.01-1.14,1.84-2.04,2.52-2.72c2.01-2.54,3.76-5.43,5.23-8.66c1.47-3.21,2.82-6.37,4.03-9.46
		c1.21-3.08,2.34-6,3.42-8.75c1.08-2.75,2.22-4.99,3.42-6.74c0.53-0.8,1.61-1.27,3.21-1.4c1.61-0.14,3.18-0.03,4.72,0.3
		c1.54,0.34,2.78,0.84,3.72,1.51c0.94,0.68,0.94,1.48,0,2.42c-0.8,0.8-2.01,2.52-3.62,5.13c-1.61,2.61-3.16,5.66-4.63,9.16
		c-3.48,8.04-5.47,14.05-5.93,18.01c-0.48,3.96,0.1,6.07,1.71,6.34c1.08,0.27,2.34-0.37,3.82-1.91c1.47-1.54,3.12-3.72,4.93-6.53
		c1.46-2.27,3.03-4.95,4.71-8.02c0.08-0.3,0.15-0.59,0.22-0.83c0.8-2.95,1.51-5.76,2.11-8.45c0.61-2.68,1.65-6.57,3.12-11.66
		c0.67-3.48,2.15-5.36,4.42-5.63s5.09-0.14,8.45,0.41c-0.8,1.88-1.74,4.22-2.82,7.04c-1.08,2.82-2.11,5.8-3.12,8.96
		c-1.01,3.16-1.91,6.3-2.72,9.46c-0.8,3.16-1.35,6-1.61,8.55c-0.41,3.62-0.07,6.11,1.01,7.44c1.08,1.35,2.45,1.88,4.12,1.61
		c1.67-0.27,3.39-1.1,5.13-2.52c1.74-1.42,3.09-2.91,4.03-4.53c1.08-1.88,1.95-3.65,2.61-5.33c0.67-1.67,1.21-2.98,1.61-3.92
		c-2.29-0.14-4.12-0.46-5.54-1.01c-1.4-0.53-2.65-1.28-3.72-2.22c-1.35-1.08-1.91-2.91-1.71-5.54c0.2-2.61,0.87-5.23,2.01-7.84
		c1.14-2.61,2.55-4.93,4.22-6.94c1.67-2.01,3.32-3.02,4.93-3.02c2.55-0.27,4.72,0.1,6.53,1.1c1.81,1.01,3.05,2.59,3.72,4.72
		c0.94,2.82,1.24,5.8,0.9,8.96s-0.84,6.07-1.51,8.75c1.74-0.27,3.35-0.46,4.83-0.6c1.47-0.14,2.41-0.2,2.82-0.2
		c3.08-0.27,5.13-0.37,6.14-0.3C395.21,735.33,395.55,735.47,395.21,735.66L395.21,735.66z M273.02,720.48
		c-0.14-1.21-0.64-2.31-1.51-3.32c-0.87-1.01-2.71-0.78-5.53,0.71c-2.15,1.21-4.1,2.75-5.84,4.63c-1.74,1.88-3.29,3.92-4.63,6.14
		c-1.35,2.22-2.48,4.56-3.42,7.04c-0.94,2.49-1.67,4.79-2.22,6.94c-0.8,3.62-0.9,6.44-0.3,8.45c0.6,2.01,1.58,3.32,2.91,3.92
		c1.33,0.6,2.89,0.48,4.63-0.41c1.74-0.87,3.42-2.52,5.04-4.93c1.33-2.01,2.68-4.45,4.03-7.34c1.33-2.89,2.54-5.76,3.62-8.64
		c1.08-2.89,1.91-5.53,2.52-7.95C272.91,723.29,273.15,721.56,273.02,720.48L273.02,720.48z M373.6,722.39
		c0-1.95-0.27-3.48-0.8-4.63c-0.54-1.14-1.28-1.58-2.22-1.31c-1.21,0.27-2.35,1.65-3.42,4.12c-1.08,2.48-1.88,5.2-2.41,8.15
		c-0.8,4.56,1.42,7.1,6.64,7.65c0.8-2.41,1.37-4.86,1.71-7.34C373.42,726.54,373.6,724.33,373.6,722.39L373.6,722.39z M414.7,709.85
		c0.73,0.33,0.88-0.11,0.41-1.28c-0.18-0.68,0.52-1.2,2.07-1.58c1.54-0.38,3.67-0.61,6.38-0.71s5.96-0.1,9.76-0.03
		c0.39,0.01,0.83,0.01,1.24,0.03h0.01l0.29,0.01c3.35,0.07,6.85,0.15,10.53,0.23l0.45,0.1c5.82,0.2,22.67,0.91,22.67,0.91
		c2.76,0.19,4.85-0.22,6.26-1.21c1.42-0.99,2.27-2.27,2.57-3.85c0.3-1.58,0.15-3.27-0.45-5.05c-0.6-1.78-1.66-3.43-3.18-4.91
		c0,0,0.76,4.85-8.44,4.87h-0.03h-0.05h-0.04c-0.56,0.01-1.17,0.03-1.84,0.03c-10.41-0.04-18.86-0.04-25.37-0.03
		c-6.51,0.01-11.62,0.15-15.32,0.42c-3.72,0.26-6.42,0.64-8.12,1.13c-1.7,0.49-2.95,1.18-3.76,2.1c-0.8,0.91-0.93,2.01-0.39,3.32
		c0.53,1.31,1.21,2.46,2.03,3.48C413.18,708.86,413.95,709.53,414.7,709.85L414.7,709.85z M307.96,707.84
		c0.48,1.02,0.93,1.69,1.36,2.01c0.42,0.33,0.52-0.11,0.24-1.28c-0.11-0.68,0.3-1.2,1.21-1.58c0.9-0.38,2.15-0.61,3.73-0.71
		c1.58-0.1,3.48-0.1,5.7-0.03c0.23,0.01,0.49,0.01,0.72,0.03h0.01l0.16,0.01c1.96,0.07,4,0.15,6.17,0.23l0.26,0.1
		c3.4,0.2,13.26,0.91,13.26,0.91c1.61,0.19,2.83-0.22,3.66-1.21c0.83-0.99,1.32-2.27,1.5-3.85c0.18-1.58,0.08-3.27-0.26-5.05
		c-0.35-1.78-0.97-3.43-1.86-4.91c0,0,0.45,4.85-4.93,4.87h-0.01h-0.03h-0.03c-0.33,0.01-0.68,0.03-1.08,0.03
		c-6.08-0.04-11.02-0.04-14.83-0.03c-3.81,0.01-6.79,0.15-8.97,0.42c-2.18,0.26-3.76,0.64-4.75,1.13c-0.99,0.49-1.73,1.18-2.19,2.1
		c-0.46,0.91-0.54,2.01-0.23,3.32C307.09,705.66,307.48,706.82,307.96,707.84L307.96,707.84z M785.07,728.59
		c-0.6-1.78-1.66-3.43-3.18-4.91c0,0,0.75,4.85-8.44,4.87h-0.03h-0.05h-0.04c-0.56,0.01-1.17,0.03-1.84,0.03
		c-9.12-0.03-16.74-0.04-22.86-0.04c0.1-0.75,0.18-1.51,0.22-2.25c0.27-4.3-1.21-7.98-4.42-11.06c-3.21-3.09-7.38-4.83-12.47-5.23
		c-4.42-0.27-8.41,0.78-11.96,3.12c-3.55,2.34-6.6,5.36-9.16,9.05c-2.54,3.69-4.56,7.61-6.03,11.77
		c-0.69,1.97-4.68,10.79-6.03,12.89c-1.81,2.82-3.46,4.99-4.93,6.53c-1.48,1.54-2.75,2.18-3.82,1.91c-1.61-0.27-2.18-2.38-1.7-6.34
		c0.46-3.96,2.45-9.96,5.93-18.01c1.47-3.48,3.02-6.53,4.63-9.16c1.61-2.61,2.82-4.33,3.62-5.13c0.94-0.94,0.94-1.74,0-2.41
		c-0.94-0.67-2.18-1.17-3.72-1.51c-1.54-0.34-3.12-0.44-4.72-0.3c-1.61,0.14-2.68,0.61-3.23,1.4c-1.21,1.74-2.35,3.99-3.42,6.74
		c-1.08,2.75-2.22,5.66-3.42,8.75c-0.11,0.27-0.23,0.54-0.33,0.82c-5.99,0.01-10.74,0.12-14.24,0.31c-0.93,0.05-1.8,0.11-2.6,0.16
		c0.67-1.57,1.37-3.08,2.08-4.52c1.21-2.41,2.45-4.53,3.72-6.33c1.28-1.81,2.52-2.91,3.72-3.32c0.94-0.39,1.03-0.94,0.3-1.61
		c-0.73-0.67-1.88-1.28-3.42-1.81c-1.54-0.53-3.16-0.83-4.83-0.91c-1.67-0.07-2.91,0.37-3.72,1.31c-1.08,1.08-2.31,3.02-3.73,5.84
		c-1.4,2.82-2.75,5.97-4.03,9.46c-0.33,0.91-0.65,1.82-0.95,2.72c0,0-5.74,6.68-10.59,11.64c0.57-1.14,1.1-2.3,1.61-3.51
		c1.88-4.56,2.95-8.98,3.23-13.28c0.27-4.29-1.21-7.98-4.42-11.06c-3.23-3.09-7.38-4.83-12.47-5.23c-4.42-0.27-8.41,0.78-11.96,3.12
		c-3.55,2.34-6.6,5.36-9.15,9.05c-0.49,0.71-0.94,1.43-1.39,2.15c-0.23-3.47-1.69-6.51-4.41-9.1c-3.23-3.09-7.38-4.82-12.47-5.23
		c-4.42-0.27-8.42,0.78-11.98,3.12c-0.8,0.54-1.58,1.12-2.31,1.71c-0.34,0.27-0.69,0.57-1.06,0.9l-0.01,0.01
		c-0.42,0.37-0.87,0.78-1.35,1.24l-0.01,0.01c-0.33,0.3-0.68,0.64-1.03,1.02l-0.22,0.23l-0.24,0.26l-0.24,0.27
		c-0.18,0.19-0.35,0.39-0.52,0.59c-8.59,9.66-21.05,35.02-29.22,37.79l-0.03,0.01l-0.04,0.01c-1.06,0.27-1.88,0.2-2.48-0.23
		c-1.42-0.8-1.2-2.99,0.67-6.52c1.82-3.52,5.82-8.44,11.95-14.71c0.22-0.23,0.41-0.44,0.63-0.64l0.23-0.23
		c5.63-5.81,6.78-10.17,6.4-13.32v-0.03l-0.04-0.37v-0.03v-0.01c-0.04-0.34-0.11-0.67-0.19-1.01c-0.35-1.27-1.05-2.63-2.16-4.15
		c-2.37-3.2-5.32-4.4-8.86-3.59c-3.54,0.8-7.2,2.6-10.98,5.39c-3.09,2.27-6.07,4.94-8.97,7.96l-0.15,0.14
		c-6.04,5.43-16.02,18.93-21.11,26.01c3.31-9.02,6.8-16.66,8.89-20.9c1.47-3.48,3.02-6.53,4.63-9.15c1.61-2.61,2.82-4.33,3.62-5.13
		c0.94-0.94,0.94-1.74,0-2.41c-0.94-0.67-2.22-1.17-3.82-1.51c-1.61-0.34-3.21-0.44-4.83-0.3c-1.61,0.14-2.61,0.6-3.02,1.4
		c-1.08,1.74-2.15,3.99-3.21,6.74c-1.08,2.75-2.22,5.66-3.42,8.75c-1.21,3.09-2.59,6.23-4.12,9.46c-1.54,3.23-3.32,6.1-5.33,8.66
		c-1.08,1.35-2.11,2.49-3.12,3.42c-1.01,0.94-2.04,1.81-3.12,2.61c-0.41,0.41-1.01,0.84-1.81,1.31c-0.8,0.46-1.61,0.73-2.41,0.8
		c-0.8,0.07-1.51-0.2-2.11-0.8c-0.6-0.6-0.9-1.84-0.9-3.73c0-2.01,0.46-4.79,1.42-8.34c0.94-3.55,2.14-7.17,3.62-10.86
		c1.47-3.69,3.12-7.01,4.93-9.96c1.81-2.95,3.52-4.76,5.13-5.43c0.94-0.39,1.03-0.94,0.3-1.61c-0.73-0.67-1.88-1.28-3.42-1.81
		c-1.54-0.53-3.16-0.83-4.83-0.91c-1.67-0.07-2.91,0.37-3.73,1.31c-1.08,1.08-2.35,3.16-3.82,6.23c-1.48,3.09-2.84,6.44-4.12,10.06
		c-1.27,3.62-2.38,7.17-3.32,10.66l-0.11,0.41c-0.3,0.52-0.61,1.03-0.9,1.51c-2.82,4.63-5.17,7.95-7.04,9.96
		c-1.88,2.01-3.32,2.95-4.33,2.82c-1.01-0.14-1.65-1.01-1.91-2.61c-0.27-1.33,0.07-3.42,1.01-6.23c0.94-2.82,2.04-5.84,3.32-9.05
		c1.27-3.21,2.59-6.3,3.92-9.25c1.33-2.94,2.41-5.16,3.21-6.64c0.8-1.61,0.94-3.02,0.39-4.22c-0.54-1.21-1.47-2.18-2.82-2.91
		c-1.35-0.73-2.91-1.24-4.72-1.51c-1.81-0.27-3.59-0.2-5.33,0.2c-1.21,0.27-2.75,1.67-4.63,4.23c-1.88,2.54-4.16,5.36-6.85,8.45
		l2.22-4.22c0.8-1.61,0.9-3.02,0.3-4.22c-0.6-1.21-1.61-2.18-3.02-2.91c-1.4-0.73-3.02-1.24-4.83-1.51c-1.81-0.27-3.59-0.2-5.34,0.2
		c-0.67,0.14-1.54,0.71-2.61,1.71c-1.08,1.01-2.27,2.2-3.62,3.62c-1.35,1.4-2.72,2.95-4.12,4.63c-1.42,1.67-2.65,3.32-3.72,4.93
		c1.74-3.89,3.42-6.97,5.04-9.25c1.61-2.27,2.89-3.55,3.82-3.82c-3.62-1.88-6.51-2.61-8.66-2.22c-2.15,0.41-3.96,2.22-5.43,5.43
		c-0.54,1.2-0.87,1.88-1.01,2.01c-0.14,0.14-0.41,0.71-0.8,1.71c-0.41,1.01-1.14,2.93-2.22,5.73c-1.08,2.82-2.82,7.44-5.23,13.88
		c-0.94,2.42-1.54,4.8-1.81,7.15c-0.27,2.35,0,4.42,0.8,6.23c0.8,1.81,2.25,3.16,4.33,4.03s5.06,1.03,8.96,0.5
		c-2.41-0.14-4.1-0.83-5.02-2.11c-0.94-1.27-1.31-2.98-1.1-5.13c0.2-2.15,0.87-4.63,2.01-7.44c1.14-2.82,2.59-5.96,4.33-9.46
		c1.74-2.55,3.25-4.7,4.53-6.44c1.28-1.74,2.48-3.21,3.62-4.42c1.13-1.21,2.18-2.25,3.12-3.12c0.94-0.87,1.95-1.77,3.02-2.71
		c0.39-0.39,0.94-0.8,1.61-1.21c0.67-0.41,1.31-0.6,1.91-0.6c0.6,0,1.01,0.3,1.21,0.91c0.2,0.6-0.04,1.78-0.71,3.52
		c-2.41,6.3-4.36,11.43-5.84,15.39c-1.47,3.96-2.52,7.12-3.12,9.46s-0.87,4.12-0.8,5.32c0.07,1.21,0.44,2.22,1.1,3.02
		c0.67,0.8,1.67,1.28,3.02,1.42c1.33,0.14,2.59,0.14,3.72,0c1.14-0.14,1.95-0.37,2.41-0.71c0.48-0.34,0.1-0.57-1.1-0.71
		c-0.67-0.14-1.01-0.73-1.01-1.81c0-1.08,0.27-2.45,0.8-4.12c0.53-1.67,1.28-3.65,2.22-5.93c0.94-2.27,1.95-4.7,3.02-7.24
		c2.41-2.95,4.75-6,7.04-9.16c2.27-3.14,4.49-5.66,6.64-7.54c0.41-0.39,0.9-0.8,1.51-1.21c0.6-0.41,1.17-0.64,1.71-0.71
		c0.53-0.07,0.91,0.2,1.1,0.8c0.2,0.6,0.03,1.78-0.5,3.52c-0.67,2.01-1.54,4.4-2.61,7.15c-1.08,2.75-2.18,5.63-3.32,8.64
		c-1.14,3.02-2.11,5.97-2.91,8.85c-0.8,2.89-1.21,5.33-1.21,7.35c0,2.54,0.73,4.26,2.22,5.13c1.47,0.87,3.02,1.44,4.63,1.71
		c3.23,0.53,6.21-0.6,8.96-3.42c2.35-2.41,4.5-5.29,6.46-8.59c0.01,0.33,0.04,0.65,0.07,0.95c0.14,1.33,0.61,2.75,1.4,4.22
		c0.8,1.47,1.81,2.75,3.02,3.82c1.21,1.08,2.59,1.92,4.12,2.52c1.54,0.6,3.18,0.71,4.93,0.3c0.8-0.27,2.22-1.17,4.22-2.71
		c1.8-1.37,3.48-3.01,5.06-4.87c-0.24,0.84-0.56,1.95-0.94,3.36c-0.48,1.74-0.98,3.8-1.51,6.14c-0.54,2.35-1.08,4.6-1.61,6.74
		c-0.54,2.15-1.01,4.06-1.42,5.73c-0.39,1.67-0.6,2.78-0.6,3.32c-0.67,4.42-0.16,7.84,1.51,10.26c1.67,2.41,4.06,3.48,7.15,3.23
		c1.74-0.14,3.14-0.94,4.22-2.41c1.08-1.48,1.47-3.02,1.21-4.63c-0.27,1.47-0.9,2.41-1.91,2.82c-1.01,0.39-1.78,0.6-2.31,0.6
		c-0.94,0-1.35-1.37-1.21-4.12c0.14-2.75,0.54-5.93,1.31-9.55c1.01-4.72,2.33-9.46,3.78-14.02c7.31-11.17,23.44-30.34,26.81-33.29
		c2.31-1.95,4.44-3.65,6.38-5.06c2.69-1.99,5.01-3.44,6.93-4.36c1.93-0.91,3.35-1.06,4.25-0.42c1.4,0.82,1.2,2.99-0.65,6.53
		c-0.98,1.88-9.47,12.56-11.73,15.28c-4.97,5.65-7.24,9.38-7.47,12.62l-0.01,0.33c-0.01,0.23-0.01,0.46,0,0.72l0.05,0.35
		c0.04,0.35,0.11,0.69,0.19,1.06c0.34,1.25,1.03,2.63,2.15,4.14c2.37,3.18,5.32,4.4,8.87,3.58c1.03-0.23,2.1-0.56,3.17-0.98
		l0.04-0.01l0.03-0.01c0.64-0.16,1.29-0.45,1.97-0.86l0,0c1.39-0.84,2.86-2.19,4.38-3.89c1.33-1.48,2.71-3.23,4.14-5.16l0.01-0.01
		c2.53-3.43,5.16-7.43,7.87-11.5l0,0c1.31-1.97,2.63-3.96,3.97-5.89l0.01-0.01l0.01-0.01c3.18-4.64,6.45-9.04,9.68-12.44l0,0
		c2.49-2.37,5.06-4.12,7.7-5.29c3.13-1.42,6.12-1.65,8.94-0.69c0.39,0.12,0.97,0.39,1.7,0.8c0.75,0.39,1.42,1.01,2.03,1.81
		c0.59,0.79,1.09,1.86,1.51,3.21c0.39,1.35,0.46,3.16,0.19,5.43c-0.07,1.65-0.38,3.4-0.87,5.24c-2.97,0.05-5.48,0.15-7.57,0.29
		c-3.72,0.23-6.42,0.56-8.12,0.98c-1.7,0.42-2.95,1.02-3.76,1.81c-0.79,0.79-0.93,1.74-0.39,2.87c0.53,1.13,1.21,2.14,2.03,3.01
		c0.8,0.88,1.58,1.46,2.33,1.74c0.73,0.27,0.87-0.1,0.41-1.12c-0.18-0.59,0.52-1.03,2.07-1.36c1.55-0.33,3.67-0.53,6.38-0.61
		c1.17-0.04,2.45-0.05,3.82-0.05c-0.83,1.81-1.74,3.59-2.76,5.32c-1.74,2.94-3.69,5.55-5.84,7.83c-2.14,2.3-4.36,3.84-6.63,4.64
		c-3.35,1.06-5.31,0.73-5.84-1.02c-0.52-1.74-0.33-4.08,0.61-7.02c0.14-0.41,0.39-1.18,0.8-2.33c0.23-0.68,0.35-1.03,0.35-1.06
		c-0.01,0-0.05,0.12-0.16,0.35c-3.47,4.15-5.05,7.85-4.72,11.08c0.34,3.21,2.04,5.16,5.12,5.83c4.18,0.93,8.15,0.44,11.96-1.51
		c3.84-1.96,7.19-4.7,10.07-8.25c2.89-3.57,5.25-7.62,7.13-12.17c1.42-3.44,2.37-6.8,2.87-10.08c1.86-2.89,4.04-5.63,6.55-8.23
		c2.95-3.09,6-5.33,9.15-6.74c3.16-1.42,6.14-1.65,8.96-0.71c0.41,0.14,0.98,0.41,1.71,0.8c0.73,0.39,1.4,1.01,2.01,1.81
		c0.6,0.8,1.1,1.88,1.51,3.23c0.39,1.33,0.46,3.14,0.2,5.43c-0.08,1.65-0.39,3.4-0.87,5.24c-2.94,0.05-5.44,0.15-7.51,0.27
		c-3.72,0.23-6.42,0.56-8.12,0.98c-1.7,0.42-2.95,1.02-3.76,1.81c-0.8,0.79-0.93,1.74-0.39,2.87c0.53,1.13,1.21,2.14,2.03,3.01
		c0.8,0.88,1.59,1.46,2.33,1.74c0.73,0.27,0.87-0.1,0.41-1.12c-0.18-0.59,0.52-1.03,2.07-1.36c1.55-0.33,3.67-0.53,6.38-0.61
		c1.16-0.04,2.42-0.05,3.77-0.05c-0.83,1.81-1.76,3.59-2.76,5.31c-1.74,2.95-3.69,5.57-5.84,7.85c-2.14,2.27-4.36,3.82-6.64,4.63
		c-3.35,1.08-5.29,0.73-5.84-1.01c-0.53-1.74-0.33-4.1,0.6-7.04c0.14-0.41,0.39-1.17,0.8-2.31c0.39-1.14,0.48-1.37,0.2-0.71
		c-3.48,4.15-5.06,7.84-4.72,11.06c0.34,3.21,2.04,5.16,5.13,5.84c4.15,0.94,8.15,0.44,11.96-1.51c2.34-1.18,4.5-2.68,6.49-4.48l0,0
		c0,0,9.58-7.72,17.42-16.63l-0.08,0.31c-0.94,3.48-1.47,6.44-1.61,8.85c0,1.08,0.34,2.34,1.01,3.82c0.68,1.48,1.61,2.82,2.82,4.03
		c1.16,1.16,2.5,2.08,4.01,2.8c-0.29-2.74,0.04-6,0.78-9.5l0.03-0.23c0.27-1.4,0.6-2.82,1.01-4.22c0.41-1.4,0.73-2.52,1.01-3.32
		c0.29-0.82,0.61-1.7,0.94-2.59l0.1-0.29l0.04-0.08c0.12-0.33,0.24-0.67,0.37-0.99c1.54-0.27,3.61-0.45,6.25-0.52
		c2.71-0.07,5.96-0.07,9.76-0.01c0.3,0,0.6,0.01,0.91,0.01c-2.84,8.48-3.8,16.86-1.25,19.31c0.69,0.69,1.55,1.39,2.6,2.06
		c3.35,2.15,6.53,2.22,9.55,0.2c3.02-2.01,5.8-4.99,8.34-8.96c2.54-3.96,4.8-8.36,6.64-13.28c2.29-6.12,6.53-12.7,8.74-15
		c2.95-3.09,6-5.33,9.16-6.74c3.14-1.42,6.14-1.65,8.96-0.71c0.39,0.14,0.98,0.41,1.71,0.8c0.73,0.39,1.42,1.01,2.01,1.81
		c0.6,0.8,1.1,1.88,1.51,3.21c0.41,1.33,0.48,3.14,0.2,5.43c-0.05,1.13-0.23,2.33-0.48,3.55c-3.12,0.07-5.77,0.18-7.93,0.33
		c-3.72,0.26-6.42,0.64-8.12,1.13c-1.7,0.49-2.95,1.18-3.76,2.1c-0.8,0.91-0.93,2.01-0.39,3.32c0.53,1.31,1.21,2.46,2.03,3.48
		c0.82,1.02,1.59,1.69,2.33,2.01c0.73,0.33,0.87-0.11,0.41-1.28c-0.18-0.68,0.52-1.2,2.07-1.58c1.55-0.38,3.67-0.61,6.38-0.71
		c1.22-0.04,2.57-0.07,4.03-0.07c-0.9,1.99-1.88,3.93-2.99,5.83c-1.74,2.95-3.69,5.57-5.84,7.84c-2.15,2.27-4.36,3.82-6.64,4.63
		c-3.35,1.08-5.29,0.73-5.84-1.01c-0.53-1.74-0.34-4.1,0.6-7.04c0.14-0.41,0.41-1.17,0.8-2.31c0.39-1.14,0.48-1.37,0.2-0.71
		c-3.48,4.15-5.06,7.84-4.72,11.06c0.34,3.23,2.04,5.16,5.13,5.84c4.16,0.94,8.15,0.44,11.96-1.51c3.82-1.95,7.17-4.7,10.06-8.25
		c2.89-3.55,5.27-7.61,7.15-12.17c0.29-0.68,0.54-1.36,0.79-2.04c2.31,0.05,4.68,0.11,7.16,0.16l0.45,0.1
		c5.82,0.2,22.67,0.93,22.67,0.93c2.76,0.19,4.85-0.22,6.26-1.21c1.42-0.99,2.26-2.27,2.56-3.85
		C785.82,732.07,785.67,730.39,785.07,728.59L785.07,728.59z"/>
</g>
</svg>
